Coordinates
version=1
nRows=32
nColumns=12
inDegrees=yes

Units are S.I. units (second, meters, Newtons, ...)
Angles are in degrees

endheader
time	SC_y	SC_z	SC_x	AC_y	AC_z	AC_x	GH_y	GH_z	GH_yy	EL_x	PS_y
       0.0              -37.03          15.67          38.49          34.84          5.372         -12.94          119.1          18.15          121.8          102.8          43.98
    0.0488              -37.02          15.66          38.49          34.84          5.369         -12.94          119.1          18.15          121.8          102.8          43.98
   0.09761              -37.02          15.66          38.49          34.84          5.365         -12.94          119.1          18.16          121.7          102.8          43.98
    0.1464              -37.02          15.66          38.49          34.84          5.361         -12.94          119.0          18.16          121.7          102.8          43.98
    0.1952              -37.01          15.65           38.5          34.85          5.357         -12.93          119.0          18.16          121.7          102.8          43.97
     0.244              -37.01          15.65           38.5          34.85          5.352         -12.93          118.9          18.17          121.6          102.8          43.97
    0.2928               -37.0          15.65           38.5          34.85          5.347         -12.93          118.9          18.17          121.6          102.8          43.97
    0.3416               -37.0          15.65          38.51          34.85          5.342         -12.93          118.9          18.18          121.5          102.8          43.97
    0.3904              -36.99          15.64          38.51          34.85          5.337         -12.93          118.8          18.18          121.5          102.8          43.97
    0.4392              -36.99          15.64          38.52          34.86          5.331         -12.92          118.8          18.19          121.4          102.8          43.97
     0.488              -36.98          15.63          38.52          34.86          5.324         -12.92          118.7          18.19          121.3          102.8          43.96
    0.5368              -36.98          15.63          38.52          34.86          5.317         -12.92          118.6           18.2          121.3          102.8          43.96
    0.5856              -36.97          15.62          38.53          34.86           5.31         -12.92          118.6           18.2          121.2          102.8          43.96
    0.6344              -36.96          15.62          38.54          34.87          5.302         -12.91          118.5          18.21          121.1          102.8          43.95
    0.6832              -36.95          15.61          38.54          34.87          5.293         -12.91          118.4          18.22          121.0          102.8          43.95
     0.732              -36.94          15.61          38.55          34.87          5.284         -12.91          118.3          18.22          120.9          102.8          43.95
    0.7808              -36.93           15.6          38.56          34.88          5.274          -12.9          118.3          18.23          120.8          102.8          43.94
    0.8296              -36.92          15.59          38.56          34.88          5.262          -12.9          118.2          18.24          120.7          102.9          43.94
    0.8785              -36.91          15.58          38.57          34.88           5.25         -12.89          118.0          18.25          120.6          102.9          43.94
    0.9273               -36.9          15.58          38.58          34.89          5.237         -12.89          117.9          18.26          120.5          102.9          43.93
    0.9761              -36.89          15.57          38.59          34.89          5.222         -12.88          117.8          18.27          120.3          102.9          43.93
     1.025              -36.87          15.56           38.6           34.9          5.206         -12.87          117.7          18.29          120.2          102.9          43.92
     1.074              -36.86          15.54          38.62           34.9          5.188         -12.87          117.5           18.3          120.0          102.9          43.91
     1.122              -36.84          15.53          38.63          34.91          5.169         -12.86          117.3          18.32          119.8          102.9          43.91
     1.171              -36.82          15.52          38.65          34.92          5.147         -12.85          117.1          18.34          119.6          102.9           43.9
      1.22              -36.79           15.5          38.66          34.93          5.122         -12.84          116.9          18.36          119.3          103.0          43.89
     1.269              -36.77          15.48          38.68          34.94          5.095         -12.83          116.7          18.38          119.1          103.0          43.88
     1.318              -36.74          15.46          38.71          34.95          5.064         -12.82          116.4           18.4          118.8          103.0          43.87
     1.366              -36.71          15.44          38.73          34.96          5.029          -12.8          116.1          18.43          118.4          103.0          43.85
     1.415              -36.67          15.41          38.76          34.97           4.99         -12.79          115.8          18.47          118.0          103.0          43.84
     1.464              -36.63          15.38          38.79          34.99          4.945         -12.77          115.4           18.5          117.6          103.1          43.82
     1.513              -36.58          15.35          38.83          35.01          4.893         -12.75          114.9          18.54          117.1          103.1           43.8
